<svg viewBox="0 0 200 200" xmlns="http://www.w3.org/2000/svg" xml:space="preserve" style="fill-rule:evenodd;clip-rule:evenodd;stroke-linejoin:round;stroke-miterlimit:2">
  <circle cx="100" cy="100" r="89"/>
  <path d="M97.698,102.23l-0,26.621c-0,4.461 0.767,7.567 2.302,9.318c1.535,1.751 4.725,2.626 9.569,2.626l2.015,-0l-0,7.986l-52.523,0l0,-7.986l1.439,-0c4.845,-0 7.998,-0.899 9.461,-2.698c1.463,-1.799 2.195,-4.881 2.195,-9.246l-0,-57.846c-0,-4.461 -0.756,-7.567 -2.267,-9.318c-1.51,-1.75 -4.64,-2.626 -9.389,-2.626l-1.727,0l0,-7.842l81.806,-0l0.648,25.829l-8.131,0c-1.199,-4.413 -2.734,-7.986 -4.604,-10.72c-1.871,-2.734 -3.814,-4.509 -5.828,-5.324c-2.015,-0.816 -5.085,-1.223 -9.21,-1.223l-15.756,-0l-0,33.672l7.698,-0c3.646,-0 6.176,-0.78 7.591,-2.339c1.415,-1.559 2.29,-4.76 2.626,-9.605l8.058,0l0,33.528l-8.058,0c-0.24,-5.228 -1.079,-8.67 -2.518,-10.324c-1.439,-1.655 -4.053,-2.483 -7.843,-2.483l-7.554,0Z" style="fill:#fff;fill-rule:nonzero"/>
</svg>
