<svg xmlns="http://www.w3.org/2000/svg" version="1.0" viewBox="0 0 600 602" height="200px" width="201px">
  <g>
    <path d="m500.87827,154.898l28.8193,5.80168l3.05679,-32.75129l-3.49347,-2.6201l-28.38262,29.56972z" opacity="1" fill="#fff"/>
    <path d="m50.65361,545.73009l-3.49215,-2.932l-0.43629,-125.32828l34.90313,-20.08746l3.9266,-1.31005l2.61773,-0.43668l3.49031,0.43668l24.86848,12.66383l0,-33.62466l21.37816,-12.66383l10.90723,5.67689l5.23547,-13.97388l-25.74106,-14.84725c0.00183,0.31189 0.00183,-34.18613 0.00183,-33.74945c0,0.43668 4.36289,1.74674 4.36106,1.43484c0.00183,0.31189 3.05586,2.932 3.05402,2.6201c0.00183,0.31189 5.2373,-0.56147 5.23547,-0.87337c0.00183,0.31189 6.10988,-2.74489 6.10805,-3.05679c0.00183,0.31189 2.18328,-4.92831 2.18145,-5.24021c0.00183,0.31189 1.3107,-5.365 1.30887,-5.67689c0.00183,0.31189 -2.17961,-4.49163 -2.18145,-4.80352c0.00183,0.31189 -4.79735,-3.18158 -4.79918,-3.49347c0.00183,0.31189 -4.79735,-2.30821 -4.79918,-2.6201c0.00183,0.31189 -4.36106,-3.61826 -4.36289,-3.93016c0.00183,0.31189 -3.48848,-4.92831 -3.49031,-5.24021c0.00183,0.31189 -2.17961,-4.92831 -2.18145,-5.24021c0.00183,0.31189 0.00183,-11.04189 0,-11.35378c0.00183,0.31189 0.00183,-9.29515 0,-9.60705c0.00183,0.31189 0.43812,-7.9851 0.43629,-8.29699c0.00183,0.31189 2.18328,-7.54842 2.18145,-7.86031c0.00183,0.31189 3.92844,-9.29515 3.9266,-9.60705c0.00183,0.31189 5.2373,-7.11173 5.23547,-7.42363c0.00183,0.31189 6.10988,-6.23836 6.10805,-6.55026c0.00183,0.31189 6.10988,-4.05494 6.10805,-4.36684c0.00183,0.31189 4.36472,-1.43484 4.36289,-1.74674c0.00183,0.31189 5.67359,1.62195 5.67176,1.31005c0.00183,0.31189 11.78164,5.98879 11.77981,5.67689c0.00183,0.31189 0.00183,-17.15546 0,-17.46736c0.00183,0.31189 21.38,-12.78862 21.37816,-13.10052c0.00183,0.31189 21.81629,11.66568 21.81445,11.35378c0.00183,0.31189 0.00183,-24.57909 0,-24.89098c0.00183,0.31189 23.56144,-12.35194 23.55961,-12.66383c0.00183,0.31189 4.36472,2.49531 4.36472,2.49531c0,0 0.43629,-6.11357 0.43445,-6.42547c0.00183,0.31189 37.08641,-21.5223 37.08457,-21.8342c0.00183,0.31189 4.80101,-0.12479 4.79918,-0.43668c0.00183,0.31189 14.83566,5.11542 14.83383,4.80352c0.00183,0.31189 0.00183,-17.59215 0,-17.90404c0.00183,0.31189 44.93961,-26.32582 44.93778,-26.63772c0.00183,0.31189 6.98246,2.05863 6.98063,1.74674c0.00183,0.31189 0.00183,-5.80168 0,-6.11357c0.00183,0.31189 28.79691,-16.28209 28.79508,-16.59399c0.00183,0.31189 10.47277,-5.80168 10.47094,-6.11357c0.00183,0.31189 6.10988,-0.99816 6.10805,-1.31005c0.00183,0.31189 5.67359,0.74858 5.67176,0.43668c0.00183,0.31189 4.36473,4.24205 4.36289,3.93016c0.00183,0.31189 34.46867,114.72308 34.46684,114.41118c0.00183,0.31189 19.63484,-13.22531 19.63301,-13.5372c0.00183,0.31189 5.67359,1.18526 5.67176,0.87337c0.00183,0.31189 -0.43445,-3.18158 -0.43629,-3.49347c0.00183,0.31189 59.77344,-35.93287 59.7716,-36.24476c0.00183,0.31189 -16.14086,139.17738 -16.1427,138.86548c0.00183,0.31189 -455.04768,281.53633 -455.04951,281.22443" opacity="1" fill="#fff"/>
    <g transform="translate(0 602) scale(0.1 -0.1)">
      <path d="m3949.98541,5436.0145c-19,-8 -116,-63 -215,-124c-166,-101 -180,-112 -183,-141c-3,-30 -4,-30 -30,-17c-26,13 -36,8 -259,-128l-233,-141l0,-87c0,-53 -4,-88 -10,-88c-6,0 -33,12 -61,26c-83,44 -113,35 -321,-90c-166,-100 -178,-109 -178,-137c0,-29 -13,-39 -25,-19c-12,19 -38,9 -146,-57l-109,-66l0,-119c0,-65 -3,-118 -7,-118c-3,0 -50,25 -104,55l-99,55l-112,-68l-113,-68l-3,-85l-3,-85l-66,33c-78,39 -93,40 -158,9c-87,-41 -157,-135 -202,-271c-24,-73 -27,-95 -27,-240c-1,-158 -1,-161 28,-212c27,-49 76,-92 122,-107c11,-3 30,-15 42,-27c49,-45 13,-149 -61,-177c-34,-14 -40,-13 -87,10l-50,25l2,-179l3,-180l125,-69c68,-39 126,-71 127,-73c2,-2 -9,-30 -25,-64l-27,-61l-40,24c-22,13 -46,25 -53,25c-7,0 -61,-29 -120,-65l-107,-65l-5,-163l-5,-163l-115,63c-81,44 -126,63 -151,63c-43,0 -110,-33 -289,-143l-135,-83l-3,-631c-2,-497 1,-633 10,-641c15,-11 376,-212 383,-212c8,0 337,201 382,232c50,36 117,124 151,198c14,30 26,57 28,59c2,2 34,-12 71,-32l68,-35l110,67l110,68l3,66c2,37 4,67 6,67c2,0 17,-7 32,-15c49,-25 132,-19 201,15c119,60 203,187 239,362l18,86l101,-54c119,-63 159,-68 243,-29c62,29 165,124 219,202c37,54 38,58 43,164l5,108l100,-56c126,-71 177,-79 259,-39c119,58 234,221 292,415c15,47 28,87 29,89c2,2 49,-23 106,-55c90,-50 111,-58 155,-57c115,1 271,124 349,276c22,43 44,78 49,78c5,0 34,-14 65,-31l56,-31l115,69l115,70l-4,168l-4,168l84,-45c46,-25 113,-61 149,-81l65,-36l92,57l93,57l0,128c0,70 3,127 7,127c6,0 89,-45 178,-96l40,-23l110,67l110,67l3,472l2,472l95,57l95,56l0,168l0,167l-195,107l-195,107l-217,-132c-120,-73 -256,-155 -302,-183c-46,-28 -86,-58 -88,-67c-3,-10 -11,-15 -19,-12c-7,3 -36,-9 -64,-26c-28,-17 -54,-31 -59,-31c-5,0 -15,24 -21,53c-24,100 -60,205 -81,231l-20,26l25,55c43,90 60,170 60,285c0,126 -15,183 -57,225c-42,40 -417,245 -448,244c-13,0 -40,-6 -59,-13zm121,-27c35,-35 52,-90 57,-190c6,-116 -13,-214 -61,-314l-33,-68l26,-26c16,-15 35,-55 48,-96c24,-80 92,-349 92,-364c0,-10 -173,-121 -188,-121c-4,0 -18,46 -31,103c-48,211 -88,307 -131,307c-10,0 -35,-9 -54,-21l-36,-21l0,-263l0,-262l-93,-57c-51,-31 -96,-56 -100,-56c-4,0 -7,276 -7,614l0,615l142,86c225,138 258,155 306,155c29,0 48,-6 63,-21zm-591,-394l0,-124l-120,-72l-120,-72l0,-119l0,-120l38,23c20,12 60,37 87,54c28,18 61,37 73,44l22,12l0,-124l0,-123l-107,-65l-108,-66l-3,-126c-1,-70 0,-127 2,-127c3,0 53,30 112,66c58,36 113,68 120,71c12,5 14,-14 12,-118l-3,-123l-219,-133c-120,-73 -220,-133 -222,-133c-2,0 -4,278 -4,618l1,617l217,132c119,72 218,132 220,132c1,1 2,-55 2,-124zm-542,-290c47,-40 64,-95 69,-225c8,-200 -48,-390 -147,-502c-22,-26 -74,-68 -115,-94l-75,-47l0,-223l0,-222l-77,-48c-43,-26 -88,-54 -100,-62l-23,-14l0,619l0,620l159,96c229,139 255,148 309,102zm2352,-120l0,-144l-95,-58l-95,-58l0,-470l0,-470l-94,-57c-52,-32 -97,-58 -100,-58c-3,0 -7,209 -8,465l-3,465l-60,-36c-33,-20 -75,-45 -92,-56l-33,-20l0,149l0,150l283,171c155,94 285,171 290,172c4,0 7,-65 7,-145zm-2915,-1030c-19,-120 -69,-273 -116,-351c-49,-82 -135,-166 -209,-202c-108,-55 -190,-38 -238,47c-46,82 -52,145 -52,601l0,426l94,57c51,31 96,57 100,57c3,0 6,-170 6,-377c0,-229 4,-393 10,-415c32,-113 135,-82 191,57c23,59 24,67 29,472l5,413l95,57l95,58l3,-400c2,-324 0,-419 -13,-500zm2275,171l0,-615l-86,-52c-47,-28 -89,-47 -94,-43c-4,5 -71,104 -148,221c-78,116 -146,214 -152,218c-9,6 -10,-73 -5,-312l8,-320l-89,-55c-49,-30 -95,-58 -101,-62c-10,-6 -13,119 -13,612l0,619l87,52c47,29 89,48 92,43c57,-91 298,-441 304,-442c4,0 4,143 0,318l-6,318l94,57c52,31 97,57 101,57c5,0 8,-276 8,-614zm-2996,213l26,-20l0,-150l0,-150l-37,30c-52,43 -92,42 -131,-4c-43,-48 -53,-118 -24,-162c4,-7 39,-29 77,-50c109,-60 139,-121 138,-283c-2,-241 -95,-435 -245,-509c-45,-23 -75,-31 -115,-31l-53,0l0,160c0,88 2,160 4,160c2,0 17,-7 32,-15c57,-29 136,-7 165,47c43,81 29,135 -49,176c-124,66 -147,113 -147,297c1,144 17,227 66,330c74,157 211,238 293,174zm2236,-433c0,-277 -4,-405 -15,-490c-31,-239 -116,-424 -244,-531c-112,-93 -222,-116 -282,-60c-36,35 -57,72 -77,140c-12,40 -16,135 -19,491l-4,441l98,61l98,61l5,-392c5,-369 6,-394 25,-426c30,-51 47,-58 89,-38c41,19 77,72 102,148c15,47 18,110 23,457l6,402l90,55c50,30 93,54 98,55c4,0 7,-169 7,-374zm-857,-190c69,-28 121,-119 148,-257c16,-83 16,-331 0,-434c-47,-306 -171,-539 -329,-619c-135,-68 -226,-5 -279,194c-25,93 -25,409 0,534c63,311 195,521 366,582c46,17 55,17 94,0zm-565,-525c2,-163 1,-173 -15,-165c-10,4 -40,9 -68,11c-42,4 -57,0 -97,-26c-58,-37 -108,-111 -140,-207c-19,-58 -23,-91 -23,-199c0,-116 2,-135 23,-172c25,-49 47,-63 94,-63c53,0 133,65 190,153c16,26 32,47 34,47c2,0 4,-67 4,-148l0,-149l-32,-49c-46,-70 -149,-168 -210,-198c-63,-31 -130,-34 -171,-7c-94,61 -146,260 -134,511c18,387 165,697 380,805c56,28 81,35 117,33l45,-3l3,-174zm-650,-231l32,-20l0,-150c0,-82 -3,-150 -6,-150c-4,0 -22,14 -41,30c-74,66 -163,10 -163,-102c0,-57 19,-82 89,-118c112,-56 136,-108 136,-290c-1,-102 -5,-139 -24,-200c-64,-207 -181,-324 -326,-325l-60,0l-3,145c-1,79 0,150 3,157c4,11 10,11 34,-2c89,-45 191,22 191,125c0,47 -15,67 -73,96c-98,49 -131,98 -148,220c-18,133 21,337 86,448c28,48 97,117 140,139c41,22 94,21 133,-3zm-450,-827l-3,-617l-85,-52c-47,-29 -88,-53 -93,-53c-4,-1 -6,277 -5,616l3,617l85,53c47,29 88,53 93,53c4,0 6,-278 5,-617zm-442,297c26,0 91,-69 113,-119c43,-100 55,-177 55,-351c1,-308 -75,-572 -206,-714c-38,-40 -92,-75 -400,-263c-5,-2 -8,275 -8,615l0,619l169,103c160,96 218,123 249,114c8,-2 20,-4 28,-4z"/>
      <path d="m3802.98541,5152.0145l-43,-27l0,-172c0,-95 4,-173 8,-173c5,0 33,17 62,38c76,53 104,110 108,222c3,106 -9,134 -58,137c-23,1 -49,-7 -77,-25z"/>
      <path d="m2707.98541,4454.0145l-38,-24l0,-175c0,-96 3,-175 8,-175c17,1 89,59 109,89c42,62 56,229 24,289c-16,29 -56,28 -103,-4z"/>
      <path d="m2889.98541,2963.0145c-26,-10 -71,-57 -92,-97c-60,-118 -65,-403 -7,-465c49,-53 128,-4 169,106c53,143 48,377 -10,435c-29,29 -34,30 -60,21z"/>
      <path d="m722.98541,1704.0145l-43,-26l0,-335c0,-372 -6,-346 69,-299c106,67 160,236 148,468c-10,197 -65,258 -174,192z"/>
    </g>
  </g>
</svg>
