<svg viewBox="0 0 200 200" xmlns="http://www.w3.org/2000/svg" xml:space="preserve" style="fill-rule:evenodd;clip-rule:evenodd;stroke-linejoin:round;stroke-miterlimit:2">
  <circle cx="100" cy="100" r="89"/>
  <path d="M93.182,144.921c-8.713,-0.41 -15.84,-2.243 -21.38,-5.499c-5.541,-3.257 -8.311,-7.064 -8.311,-11.423c0,-2.205 0.78,-4.218 2.34,-6.038c1.56,-1.821 3.846,-2.731 6.858,-2.731c4.249,0 7.503,2.333 9.763,7c2.743,5.641 6.32,8.871 10.73,9.692l0,-34.999c-11.887,-4.82 -19.632,-9.897 -23.236,-15.23c-3.604,-5.333 -5.406,-10.718 -5.406,-16.153c0,-6.564 2.394,-12.564 7.181,-18c4.787,-5.436 11.941,-8.743 21.461,-9.923l0,-5.076l9.279,-0l-0,4.692c7.853,-0 14.845,1.949 20.977,5.846c6.132,3.897 9.198,8.307 9.198,13.23c0,2.462 -0.901,4.538 -2.703,6.231c-1.802,1.692 -3.832,2.538 -6.091,2.538c-4.465,0 -8.042,-3.59 -10.731,-10.769c-1.775,-4.82 -5.325,-7.692 -10.65,-8.615l-0,29.153c13.608,5.333 22.685,10.692 27.23,16.076c4.545,5.385 6.818,11.461 6.818,18.23c-0,7.641 -2.905,14.461 -8.714,20.461c-5.809,6 -14.254,9.667 -25.334,11l-0,18.845l-9.279,0l0,-18.538Zm0,-69.843l0,-25.23c-7.207,1.487 -10.811,5.384 -10.811,11.692c-0,5.846 3.604,10.358 10.811,13.538Zm9.279,30.076l-0,30.922c4.464,-0.616 8.055,-2.167 10.771,-4.654c2.716,-2.487 4.074,-5.705 4.074,-9.654c0,-2.82 -0.806,-5.474 -2.42,-7.961c-1.614,-2.487 -5.755,-5.371 -12.425,-8.653Z" style="fill:#fff;fill-rule:nonzero"/>
</svg>
