<svg viewBox="0 0 200 200" xmlns="http://www.w3.org/2000/svg" xml:space="preserve" style="fill-rule:evenodd;clip-rule:evenodd;stroke-linejoin:round;stroke-miterlimit:2">
  <circle cx="100" cy="100" r="89"/>
  <path d="M116.459,101.615l-20.816,0c0.054,2.359 0.081,4.103 0.081,5.231c-0,4.82 -0.363,9.282 -1.089,13.384c-0.727,4.102 -2.031,8.82 -3.913,14.153c10.542,3.231 16.566,5 18.072,5.308c2.797,0.615 5.541,0.923 8.23,0.923c4.464,-0 8.095,-0.987 10.892,-2.961c2.797,-1.975 4.841,-5.09 6.132,-9.346l2.905,0.692c-1.13,8.256 -3.914,14.512 -8.351,18.769c-4.438,4.256 -9.373,6.384 -14.805,6.384c-3.658,-0 -6.966,-0.628 -9.924,-1.885c-2.959,-1.256 -8.418,-4.73 -16.379,-10.422c-2.151,4.102 -4.478,7.179 -6.979,9.23c-2.501,2.051 -5.177,3.077 -8.028,3.077c-2.689,-0 -4.935,-0.885 -6.737,-2.654c-1.802,-1.769 -2.703,-4.192 -2.703,-7.269c0,-3.436 1.238,-6.294 3.712,-8.576c2.474,-2.282 5.648,-3.423 9.52,-3.423c0.915,-0 1.937,0.051 3.066,0.153c1.13,0.103 2.394,0.257 3.792,0.462c0.108,-1.333 0.175,-2.487 0.202,-3.461c0.027,-0.975 0.04,-1.795 0.04,-2.462c0,-4.513 -0.564,-12.948 -1.694,-25.307l-15.652,0l-0,-7.307l15.652,-0c-0.699,-7.641 -1.049,-12.743 -1.049,-15.307c0,-6.256 1.318,-11.974 3.954,-17.153c2.635,-5.18 6.279,-9.141 10.932,-11.885c4.653,-2.743 9.642,-4.115 14.967,-4.115c6.777,0 11.873,1.744 15.289,5.231c3.416,3.487 5.123,6.974 5.123,10.461c0,1.641 -0.659,3.102 -1.976,4.384c-1.318,1.282 -2.757,1.923 -4.317,1.923c-2.044,0 -3.738,-0.974 -5.083,-2.923c-0.592,-0.923 -0.995,-2.91 -1.21,-5.961c-0.215,-3.051 -1.13,-5.295 -2.743,-6.731c-1.668,-1.435 -4.008,-2.153 -7.02,-2.153c-4.249,-0 -7.759,1.589 -10.529,4.769c-2.77,3.179 -4.155,8.769 -4.155,16.768c0,3.744 0.323,8.539 0.968,14.384c0.377,3.847 0.646,6.616 0.807,8.308l20.816,-0l0,7.307Zm-34.29,37.461c-1.183,-0.718 -2.34,-1.257 -3.469,-1.616c-1.13,-0.359 -2.259,-0.538 -3.389,-0.538c-2.42,-0 -4.303,0.628 -5.648,1.884c-1.344,1.257 -2.017,2.885 -2.017,4.885c0,1.846 0.525,3.307 1.574,4.384c1.049,1.077 2.272,1.616 3.671,1.616c1.775,-0 3.509,-0.795 5.204,-2.385c1.694,-1.59 3.052,-4.333 4.074,-8.23Z" style="fill:#fff;fill-rule:nonzero"/>
</svg>
