<svg viewBox="0 0 200 200" xmlns="http://www.w3.org/2000/svg" xml:space="preserve" style="fill-rule:evenodd;clip-rule:evenodd;stroke-linejoin:round;stroke-miterlimit:2">
  <circle cx="100" cy="100" r="89"/>
  <path d="M115.33,104.692l25.899,0l-0,5.846l-28.078,0l-1.049,3.077l0,10.461l29.127,0l-0,5.846l-29.127,0l0,3.385c0,4.666 0.216,7.692 0.646,9.076c0.753,2.256 1.99,3.974 3.711,5.154c1.721,1.179 4.626,1.769 8.714,1.769l2.904,-0l0,2.846l-57.284,-0l-0,-2.846l2.743,-0c4.465,-0 7.705,-0.513 9.722,-1.538c2.017,-1.026 3.389,-2.372 4.115,-4.039c0.726,-1.666 1.089,-5.243 1.089,-10.73l0,-3.077l-29.691,0l0,-5.846l29.691,0l0,-10.461l-1.129,-3.077l-28.562,0l0,-5.846l26.383,0l-14.764,-39.152c-2.367,-6.205 -4.519,-10.282 -6.455,-12.231c-1.183,-1.179 -2.905,-1.871 -5.164,-2.076l0,-3.385l39.777,0l-0,3.385c-3.281,0.051 -5.433,0.435 -6.455,1.153c-1.022,0.718 -1.533,1.513 -1.533,2.385c0,1.077 0.78,3.666 2.34,7.769l16.056,42.152l13.232,-36.537c2.097,-5.897 3.146,-10.051 3.146,-12.461c0,-1.487 -0.457,-2.577 -1.371,-3.269c-0.915,-0.693 -3.039,-1.09 -6.374,-1.192l-0,-3.385l23.64,0l-0,3.385c-2.475,0.666 -4.559,1.897 -6.253,3.692c-1.695,1.794 -3.617,5.641 -5.769,11.538l-13.877,38.229Z" style="fill:#fff;fill-rule:nonzero"/>
</svg>
